Coordinates
version=1
nRows=6
nColumns=34
inDegrees=yes

Units are S.I. units (second, meters, Newtons, ...)
If the header above contains a line with 'inDegrees', this indicates whether rotational values are in degrees (yes) or radians (no).

endheader
time	pelvis_tilt	pelvis_list	pelvis_rotation	pelvis_tx	pelvis_ty	pelvis_tz	hip_flexion_r	hip_adduction_r	hip_rotation_r	knee_angle_r	ankle_angle_r	subtalar_angle_r	mtp_angle_r	hip_flexion_l	hip_adduction_l	hip_rotation_l	knee_angle_l	ankle_angle_l	subtalar_angle_l	mtp_angle_l	lumbar_extension	lumbar_bending	lumbar_rotation	arm_flex_r	arm_add_r	arm_rot_r	elbow_flex_r	pro_sup_r	arm_flex_l	arm_add_l	arm_rot_l	elbow_flex_l	pro_sup_l
      4.40000000	      9.33655880	     -2.87436223	    158.68538080	      0.51455668	      0.90558223	     -0.46223667	     33.12416396	    -16.03741424	    -16.95380553	      9.44350791	      8.94360592	    -15.54670949	      0.00000000	      7.59173635	      9.02288992	     19.29415467	     21.32546176	     26.24010904	     20.19743999	      0.00000000	     -7.17310113	     -3.95906572	      2.28223378	     -6.13816016	    -12.73740213	    -14.34731672	     43.23304959	     83.13446730	      7.27320279	    -10.23109769	      8.93482667	     32.19868018	     79.29715959
      4.41666670	      9.34809553	     -3.29815186	    160.33427981	      0.49606492	      0.90045743	     -0.47408356	     32.58458915	    -16.73995237	    -17.66337296	      6.28830790	     12.64300506	    -10.71261344	      0.00000000	      6.10966713	      9.11659058	     19.78600867	     20.83672419	     26.39280519	     20.15631352	      0.00000000	     -6.82694942	     -4.55054480	      2.25245690	     -6.60843913	    -12.64790062	    -15.31725977	     42.88875848	     83.73472793	      7.56521834	    -10.56835113	     10.10295087	     30.36561593	     80.11673695
      4.43333330	      9.77189883	     -3.19624541	    162.53808714	      0.48714999	      0.90471481	     -0.48302631	     32.17059153	    -16.99830411	    -16.67931448	      4.66827256	     15.74125603	     -7.73417691	      0.00000000	      5.61494613	      8.23435215	     19.39790935	     20.75763067	     26.70719713	     18.90948793	      0.00000000	     -6.79519617	     -4.24320656	      2.05898525	     -7.22876522	    -12.57852346	    -16.26975485	     43.11991569	     84.27219871	      7.90125190	    -10.44122332	     11.10518054	     28.77379850	     81.01686057
      4.45000000	      9.91907718	     -2.73884716	    164.24602227	      0.47537234	      0.90346695	     -0.49108539	     31.64886470	    -16.83003629	    -15.48026231	      3.67141106	     17.92665240	     -5.02103674	      0.00000000	      4.32169858	      7.22487260	     20.01984410	     20.17650656	     26.71486766	     18.74354717	      0.00000000	     -7.06730110	     -3.59625960	      1.47571109	     -7.34176951	    -12.58448839	    -17.06939592	     42.87075308	     84.63058208	      8.06685202	    -10.33840818	     11.74921090	     27.07442919	     81.67778761
      4.46666670	     10.29407379	     -2.28963397	    165.97950315	      0.46967543	      0.90120547	     -0.50276315	     31.84789971	    -16.35214844	    -13.42986221	      4.06777485	     18.21046069	     -4.03265651	      0.00000000	      4.56574134	      6.06982050	     19.66624754	     21.52785861	     27.09994188	     18.22072378	      0.00000000	     -7.68875763	     -2.96008027	      1.10019374	     -7.30376383	    -12.68927859	    -17.15028159	     42.82646094	     84.67121203	      8.39517866	    -10.32524598	     11.81274583	     26.97507441	     81.75806772
      4.48333330	     10.20862600	     -1.98122976	    166.79301889	      0.45343349	      0.89811376	     -0.51519845	     31.50232881	    -15.43835273	    -12.41674004	      4.35762960	     19.15093330	     -1.91129208	      0.00000000	      3.68813015	      5.25255274	     19.90367388	     22.47823856	     27.33977974	     18.67372735	      0.00000000	     -7.56053765	     -2.65113586	      0.87029254	     -6.98884276	    -12.58171659	    -17.17712732	     42.13920144	     85.00510543	      8.03761096	    -10.37671108	     12.03293628	     25.38901596	     82.24647620
